<?xml version="1.0" standalone="no"?>
<!DOCTYPE svg PUBLIC "-//W3C//DTD SVG 20010904//EN"
 "http://www.w3.org/TR/2001/REC-SVG-20010904/DTD/svg10.dtd">
<svg version="1.0" xmlns="http://www.w3.org/2000/svg"
 width="2623.000000pt" height="1699.000000pt" viewBox="0 0 2623.000000 1699.000000"
 preserveAspectRatio="xMidYMid meet">

<g transform="translate(0.000000,1699.000000) scale(0.100000,-0.100000)"
fill="#000000" stroke="none">
<path d="M1378 16975 c-482 -78 -1065 -370 -1255 -628 -47 -64 -72 -137 -105
-301 -26 -134 -21 -371 10 -488 103 -382 387 -726 894 -1081 209 -146 380
-243 988 -557 791 -410 1112 -601 1414 -844 134 -108 369 -338 649 -636 127
-135 297 -312 377 -395 140 -144 149 -155 207 -270 108 -213 250 -560 535
-1300 370 -964 439 -1169 578 -1725 209 -835 327 -1571 545 -3395 111 -928
164 -1321 236 -1745 107 -634 241 -1158 363 -1415 153 -323 386 -595 676 -790
173 -116 430 -221 645 -264 491 -98 1122 -17 1558 201 413 206 703 549 806
954 15 60 447 3598 485 3979 11 104 47 266 86 387 72 218 175 393 305 517 90
85 181 140 305 183 l95 33 205 0 c229 -1 354 -16 559 -66 223 -55 384 -127
781 -351 691 -390 1259 -661 1683 -802 359 -121 769 -187 1052 -171 239 13
496 75 661 158 491 247 746 710 805 1461 15 188 6 675 -15 916 -63 682 -208
1505 -451 2545 -74 319 -117 481 -172 650 -400 1234 -1238 2186 -2473 2809
-399 202 -757 340 -1287 496 -380 112 -556 140 -883 140 -468 0 -895 -99
-1144 -264 -190 -127 -385 -372 -497 -628 -17 -40 -49 -99 -71 -130 -121 -180
-357 -438 -538 -590 -244 -205 -571 -375 -761 -395 -153 -16 -412 73 -688 236
-334 197 -4938 2864 -4988 2889 -72 37 -397 179 -638 279 -396 166 -770 301
-1020 370 -117 31 -145 35 -280 39 -98 2 -180 -2 -237 -11z"/>
<path d="M24385 7404 c-132 -7 -350 -35 -468 -60 -143 -30 -262 -71 -382 -132
-482 -242 -1741 -648 -3495 -1126 -1435 -392 -3040 -751 -4950 -1106 -436 -81
-1244 -263 -1430 -322 -52 -17 -124 -45 -160 -63 -80 -40 -447 -300 -514 -364
-232 -220 -416 -699 -481 -1251 -35 -294 -30 -714 11 -935 96 -517 380 -1025
773 -1378 335 -302 870 -510 1558 -607 627 -88 1447 -75 1962 31 621 128 2172
604 3646 1119 773 270 957 347 1645 691 1104 552 3000 1595 3288 1808 151 112
299 269 394 417 76 119 162 317 221 514 72 238 206 758 218 845 61 465 -227
1141 -681 1596 -172 172 -252 221 -443 268 -163 41 -497 66 -712 55z"/>
</g>
</svg>
